<svg xmlns="http://www.w3.org/2000/svg" viewBox="0 0 512 512">
  <rect width="512" height="512" fill="#ffffff"/>
  <!-- Copa: bowl -->
  <path d="M160 80 Q130 220 200 290 Q225 315 245 320 L245 400 L200 400 Q185 400 185 415 L185 432 L327 432 L327 415 Q327 400 312 400 L267 400 L267 320 Q287 315 312 290 Q382 220 352 80 Z"
        fill="#8B1A2A"/>
  <!-- Vino dentro de la copa -->
  <path d="M178 200 Q172 240 200 270 Q225 295 256 300 Q287 295 312 270 Q340 240 334 200 Z"
        fill="#C0392B" opacity="0.5"/>
</svg>
